<?xml version="1.0" encoding="UTF-8"?>
<!--Generator: Apple Native CoreSVG 175-->
<!DOCTYPE svg
PUBLIC "-//W3C//DTD SVG 1.1//EN"
       "http://www.w3.org/Graphics/SVG/1.1/DTD/svg11.dtd">
<svg version="1.1" xmlns="http://www.w3.org/2000/svg" xmlns:xlink="http://www.w3.org/1999/xlink" width="9.43359" height="12.2402">
 <g>
  <rect height="12.2402" opacity="0" width="9.43359" x="0" y="0"/>
  <path d="M6.83789 2.80078Q6.39844 2.80078 6.02051 2.93555Q5.64258 3.07031 5.33203 3.20215Q5.02148 3.33398 4.79297 3.33398Q4.55273 3.33398 4.25977 3.20801Q3.9668 3.08203 3.62988 2.95898Q3.29297 2.83594 2.91211 2.83594Q2.19141 2.83594 1.52344 3.22852Q0.855469 3.62109 0.427734 4.38867Q0 5.15625 0 6.28125Q0 6.98438 0.164062 7.6875Q0.328125 8.39062 0.603516 9.01758Q0.878906 9.64453 1.21289 10.125Q1.64648 10.7285 2.05957 11.1621Q2.47266 11.5957 3.01758 11.5957Q3.375 11.5957 3.63867 11.4785Q3.90234 11.3613 4.19824 11.2412Q4.49414 11.1211 4.93945 11.1211Q5.2793 11.1211 5.50781 11.1914Q5.73633 11.2617 5.92676 11.3525Q6.11719 11.4434 6.32812 11.5137Q6.53906 11.584 6.83789 11.584Q7.23047 11.584 7.54395 11.376Q7.85742 11.168 8.12402 10.8398Q8.39062 10.5117 8.64258 10.1543Q8.91797 9.75 9.09082 9.37793Q9.26367 9.00586 9.3457 8.76855Q9.42773 8.53125 9.43359 8.50781Q9.41602 8.50195 9.17871 8.37598Q8.94141 8.25 8.63965 7.97461Q8.33789 7.69922 8.1123 7.25391Q7.88672 6.80859 7.88672 6.16406Q7.88672 5.60156 8.06543 5.19434Q8.24414 4.78711 8.48438 4.52051Q8.72461 4.25391 8.91504 4.11328Q9.10547 3.97266 9.13477 3.95508Q8.8418 3.5332 8.49609 3.29883Q8.15039 3.06445 7.81641 2.95898Q7.48242 2.85352 7.22168 2.82715Q6.96094 2.80078 6.83789 2.80078ZM6.42773 1.85156Q6.69727 1.5293 6.86719 1.10449Q7.03711 0.679688 7.03711 0.228516Q7.03711 0.0996094 7.01953 0Q6.58008 0.0175781 6.10254 0.263672Q5.625 0.509766 5.31445 0.878906Q5.0625 1.16016 4.86914 1.58203Q4.67578 2.00391 4.67578 2.44922Q4.67578 2.51953 4.68457 2.57812Q4.69336 2.63672 4.69922 2.66016Q4.77539 2.67773 4.85742 2.67773Q5.25 2.67773 5.69238 2.44336Q6.13477 2.20898 6.42773 1.85156Z" fill="rgba(255,255,255,0.85)"/>
 </g>
</svg>
