<?xml version="1.0" encoding="UTF-8"?>
<!--Generator: Apple Native CoreSVG 175-->
<!DOCTYPE svg
PUBLIC "-//W3C//DTD SVG 1.1//EN"
       "http://www.w3.org/Graphics/SVG/1.1/DTD/svg11.dtd">
<svg version="1.1" xmlns="http://www.w3.org/2000/svg" xmlns:xlink="http://www.w3.org/1999/xlink" width="11.9531" height="11.9238">
 <g>
  <rect height="11.9238" opacity="0" width="11.9531" x="0" y="0"/>
  <path d="M5.95898 11.9238Q6.18164 11.9238 6.33691 11.7656Q6.49219 11.6074 6.49219 11.3906Q6.49219 11.1738 6.33691 11.0186Q6.18164 10.8633 5.95898 10.8633Q5.74805 10.8633 5.59277 11.0186Q5.4375 11.1738 5.4375 11.3906Q5.4375 11.6074 5.59277 11.7656Q5.74805 11.9238 5.95898 11.9238ZM7.64648 11.6543Q7.86328 11.6543 8.02148 11.499Q8.17969 11.3438 8.17969 11.1211Q8.17969 10.9043 8.02148 10.749Q7.86328 10.5938 7.64648 10.5938Q7.42969 10.5938 7.27441 10.752Q7.11914 10.9102 7.11914 11.1211Q7.11914 11.3438 7.27441 11.499Q7.42969 11.6543 7.64648 11.6543ZM9.16406 10.8809Q9.38086 10.8809 9.53906 10.7227Q9.69727 10.5645 9.69727 10.3477Q9.69727 10.1309 9.53906 9.97559Q9.38086 9.82031 9.16406 9.82031Q8.94727 9.82031 8.79199 9.97559Q8.63672 10.1309 8.63672 10.3477Q8.63672 10.5645 8.79199 10.7227Q8.94727 10.8809 9.16406 10.8809ZM10.3652 9.67383Q10.5879 9.67383 10.7432 9.51855Q10.8984 9.36328 10.8984 9.14062Q10.8984 8.92969 10.7432 8.77441Q10.5879 8.61914 10.3652 8.61914Q10.1484 8.61914 9.99316 8.77441Q9.83789 8.92969 9.83789 9.14062Q9.83789 9.36328 9.99316 9.51855Q10.1484 9.67383 10.3652 9.67383ZM11.1328 8.17383Q11.3555 8.17383 11.5107 8.01562Q11.666 7.85742 11.666 7.64062Q11.666 7.42383 11.5107 7.26855Q11.3555 7.11328 11.1328 7.11328Q10.916 7.11328 10.7607 7.26855Q10.6055 7.42383 10.6055 7.64062Q10.6055 7.85742 10.7607 8.01562Q10.916 8.17383 11.1328 8.17383ZM11.4199 6.49219Q11.6426 6.49219 11.7979 6.33398Q11.9531 6.17578 11.9531 5.95898Q11.9531 5.74219 11.7979 5.58691Q11.6426 5.43164 11.4199 5.43164Q11.209 5.43164 11.0537 5.58691Q10.8984 5.74219 10.8984 5.95898Q10.8984 6.17578 11.0508 6.33398Q11.2031 6.49219 11.4199 6.49219ZM11.1328 4.81055Q11.3555 4.81055 11.5107 4.65527Q11.666 4.5 11.666 4.2832Q11.666 4.06641 11.5107 3.9082Q11.3555 3.75 11.1328 3.75Q10.916 3.75 10.7607 3.9082Q10.6055 4.06641 10.6055 4.2832Q10.6055 4.5 10.7607 4.65527Q10.916 4.81055 11.1328 4.81055ZM10.3652 3.30469Q10.5879 3.30469 10.7432 3.14941Q10.8984 2.99414 10.8984 2.7832Q10.8984 2.56055 10.7432 2.40527Q10.5879 2.25 10.3652 2.25Q10.1484 2.25 9.99316 2.40527Q9.83789 2.56055 9.83789 2.7832Q9.83789 2.99414 9.99316 3.14941Q10.1484 3.30469 10.3652 3.30469ZM9.16406 2.10352Q9.38086 2.10352 9.53906 1.94824Q9.69727 1.79297 9.69727 1.57617Q9.69727 1.35938 9.53906 1.20117Q9.38086 1.04297 9.16406 1.04297Q8.94727 1.04297 8.79199 1.20117Q8.63672 1.35938 8.63672 1.57617Q8.63672 1.79297 8.79199 1.94824Q8.94727 2.10352 9.16406 2.10352ZM7.64648 1.33008Q7.86328 1.33008 8.02148 1.1748Q8.17969 1.01953 8.17969 0.802734Q8.17969 0.580078 8.02148 0.424805Q7.86328 0.269531 7.64648 0.269531Q7.42969 0.269531 7.27441 0.424805Q7.11914 0.580078 7.11914 0.802734Q7.11914 1.01367 7.27441 1.17188Q7.42969 1.33008 7.64648 1.33008ZM5.95898 1.06055Q6.18164 1.06055 6.33691 0.905273Q6.49219 0.75 6.49219 0.533203Q6.49219 0.316406 6.33691 0.158203Q6.18164 0 5.95898 0Q5.74805 0 5.59277 0.158203Q5.4375 0.316406 5.4375 0.533203Q5.4375 0.75 5.59277 0.905273Q5.74805 1.06055 5.95898 1.06055ZM4.28906 1.33008Q4.5 1.33008 4.6582 1.17188Q4.81641 1.01367 4.81641 0.802734Q4.81641 0.580078 4.66113 0.424805Q4.50586 0.269531 4.28906 0.269531Q4.06641 0.269531 3.91113 0.424805Q3.75586 0.580078 3.75586 0.802734Q3.75586 1.01953 3.91113 1.1748Q4.06641 1.33008 4.28906 1.33008ZM2.77734 2.10352Q2.99414 2.10352 3.14941 1.94824Q3.30469 1.79297 3.30469 1.57617Q3.30469 1.35938 3.14941 1.20117Q2.99414 1.04297 2.77734 1.04297Q2.56055 1.04297 2.40234 1.20117Q2.24414 1.35938 2.24414 1.57617Q2.24414 1.79297 2.40234 1.94824Q2.56055 2.10352 2.77734 2.10352ZM1.58203 3.30469Q1.79297 3.30469 1.95117 3.14941Q2.10938 2.99414 2.10938 2.7832Q2.10938 2.56055 1.9541 2.40527Q1.79883 2.25 1.58203 2.25Q1.35938 2.25 1.2041 2.40527Q1.04883 2.56055 1.04883 2.7832Q1.04883 2.99414 1.2041 3.14941Q1.35938 3.30469 1.58203 3.30469ZM0.814453 4.81055Q1.02539 4.81055 1.18359 4.65527Q1.3418 4.5 1.3418 4.2832Q1.3418 4.06641 1.18652 3.9082Q1.03125 3.75 0.814453 3.75Q0.591797 3.75 0.436523 3.9082Q0.28125 4.06641 0.28125 4.2832Q0.28125 4.5 0.436523 4.65527Q0.591797 4.81055 0.814453 4.81055ZM0.533203 6.49219Q0.75 6.49219 0.902344 6.33398Q1.05469 6.17578 1.05469 5.95898Q1.05469 5.74219 0.899414 5.58691Q0.744141 5.43164 0.533203 5.43164Q0.316406 5.43164 0.158203 5.58691Q0 5.74219 0 5.95898Q0 6.17578 0.158203 6.33398Q0.316406 6.49219 0.533203 6.49219ZM0.814453 8.17383Q1.03125 8.17383 1.18652 8.01562Q1.3418 7.85742 1.3418 7.64062Q1.3418 7.42383 1.18359 7.26855Q1.02539 7.11328 0.814453 7.11328Q0.591797 7.11328 0.436523 7.26855Q0.28125 7.42383 0.28125 7.64062Q0.28125 7.85742 0.436523 8.01562Q0.591797 8.17383 0.814453 8.17383ZM1.58203 9.67383Q1.79883 9.67383 1.9541 9.51855Q2.10938 9.36328 2.10938 9.14062Q2.10938 8.92969 1.95117 8.77441Q1.79297 8.61914 1.58203 8.61914Q1.35938 8.61914 1.2041 8.77441Q1.04883 8.92969 1.04883 9.14062Q1.04883 9.36328 1.2041 9.51855Q1.35938 9.67383 1.58203 9.67383ZM2.77734 10.8809Q2.99414 10.8809 3.14941 10.7227Q3.30469 10.5645 3.30469 10.3477Q3.30469 10.1309 3.14941 9.97559Q2.99414 9.82031 2.77734 9.82031Q2.56055 9.82031 2.40234 9.97559Q2.24414 10.1309 2.24414 10.3477Q2.24414 10.5645 2.40234 10.7227Q2.56055 10.8809 2.77734 10.8809ZM4.28906 11.6543Q4.50586 11.6543 4.66113 11.499Q4.81641 11.3438 4.81641 11.1211Q4.81641 10.9102 4.6582 10.752Q4.5 10.5938 4.28906 10.5938Q4.06641 10.5938 3.91113 10.749Q3.75586 10.9043 3.75586 11.1211Q3.75586 11.3438 3.91113 11.499Q4.06641 11.6543 4.28906 11.6543Z" fill="rgba(255,255,255,0.85)"/>
 </g>
</svg>
