<?xml version="1.0" encoding="UTF-8"?>
<!--Generator: Apple Native CoreSVG 175-->
<!DOCTYPE svg
PUBLIC "-//W3C//DTD SVG 1.1//EN"
       "http://www.w3.org/Graphics/SVG/1.1/DTD/svg11.dtd">
<svg version="1.1" xmlns="http://www.w3.org/2000/svg" xmlns:xlink="http://www.w3.org/1999/xlink" width="13.9688" height="12.2168">
 <g>
  <rect height="12.2168" opacity="0" width="13.9688" x="0" y="0"/>
  <path d="M1.34766 10.1367L12.6152 10.1367Q13.248 10.1367 13.6084 9.77637Q13.9688 9.41602 13.9688 8.7832L13.9688 1.75781Q13.9688 1.125 13.6084 0.767578Q13.248 0.410156 12.6152 0.410156L1.34766 0.410156Q0.720703 0.410156 0.360352 0.767578Q0 1.125 0 1.75781L0 8.7832Q0 9.41602 0.360352 9.77637Q0.720703 10.1367 1.34766 10.1367ZM1.36523 9.19336Q1.17188 9.19336 1.05762 9.0791Q0.943359 8.96484 0.943359 8.77148L0.943359 1.77539Q0.943359 1.57617 1.05762 1.46484Q1.17188 1.35352 1.36523 1.35352L12.6035 1.35352Q12.7969 1.35352 12.9111 1.46484Q13.0254 1.57617 13.0254 1.77539L13.0254 8.77148Q13.0254 8.96484 12.9111 9.0791Q12.7969 9.19336 12.6035 9.19336ZM5.13281 11.5312L8.83594 11.5312L8.83594 10.0605L5.13281 10.0605ZM5.09766 12.2168L8.87109 12.2168Q9.06445 12.2168 9.20215 12.0791Q9.33984 11.9414 9.33984 11.7422Q9.33984 11.543 9.20215 11.4053Q9.06445 11.2676 8.87109 11.2676L5.09766 11.2676Q4.9043 11.2676 4.76367 11.4053Q4.62305 11.543 4.62305 11.7422Q4.62305 11.9414 4.76367 12.0791Q4.9043 12.2168 5.09766 12.2168Z" fill="rgba(255,255,255,0.85)"/>
 </g>
</svg>
