<?xml version="1.0" encoding="UTF-8"?>
<!--Generator: Apple Native CoreSVG 175-->
<!DOCTYPE svg
PUBLIC "-//W3C//DTD SVG 1.1//EN"
       "http://www.w3.org/Graphics/SVG/1.1/DTD/svg11.dtd">
<svg version="1.1" xmlns="http://www.w3.org/2000/svg" xmlns:xlink="http://www.w3.org/1999/xlink" width="16.916" height="10.623">
 <g>
  <rect height="10.623" opacity="0" width="16.916" x="0" y="0"/>
  <path d="M3.71484 4.13672Q3.71484 4.36523 3.84375 4.49707Q3.97266 4.62891 4.20117 4.62891L5.25586 4.62891L5.25586 5.6543Q5.25586 5.87695 5.37891 6.00879Q5.50195 6.14062 5.71875 6.14062Q5.93555 6.14062 6.05859 6.00879Q6.18164 5.87695 6.18164 5.6543L6.18164 4.62891L7.17188 4.62891Q7.41797 4.62891 7.55566 4.49707Q7.69336 4.36523 7.69336 4.13672Q7.69336 3.91992 7.55566 3.79102Q7.41797 3.66211 7.17188 3.66211L6.18164 3.66211L6.18164 2.63672Q6.18164 2.41406 6.05859 2.28516Q5.93555 2.15625 5.71875 2.15625Q5.50195 2.15625 5.37891 2.28516Q5.25586 2.41406 5.25586 2.63672L5.25586 3.66211L4.20117 3.66211Q3.97266 3.66211 3.84375 3.79102Q3.71484 3.91992 3.71484 4.13672ZM12.0996 4.06055Q12.457 4.06055 12.7002 3.82031Q12.9434 3.58008 12.9434 3.22266Q12.9434 2.86523 12.7002 2.61914Q12.457 2.37305 12.0996 2.37305Q11.748 2.37305 11.502 2.61914Q11.2559 2.86523 11.2559 3.22266Q11.2559 3.58008 11.502 3.82031Q11.748 4.06055 12.0996 4.06055ZM10.377 5.80078Q10.7344 5.80078 10.9775 5.55762Q11.2207 5.31445 11.2207 4.95703Q11.2207 4.59961 10.9775 4.35352Q10.7344 4.10742 10.377 4.10742Q10.0254 4.10742 9.7793 4.35352Q9.5332 4.59961 9.5332 4.95703Q9.5332 5.31445 9.7793 5.55762Q10.0254 5.80078 10.377 5.80078ZM0 8.36133Q0 9.04688 0.27832 9.55664Q0.556641 10.0664 1.06055 10.3447Q1.56445 10.623 2.23242 10.623Q2.74219 10.623 3.22559 10.4004Q3.70898 10.1777 4.07812 9.7207L5.13867 8.4375Q5.25586 8.29688 5.38477 8.23242Q5.51367 8.16797 5.64258 8.16797L11.2734 8.16797Q11.4023 8.16797 11.5312 8.23242Q11.6602 8.29688 11.7773 8.4375L12.8379 9.7207Q13.207 10.1777 13.6904 10.4004Q14.1738 10.623 14.6836 10.623Q15.3516 10.623 15.8555 10.3447Q16.3594 10.0664 16.6377 9.55664Q16.916 9.04688 16.916 8.36133Q16.916 7.92188 16.8193 7.41797Q16.7227 6.91406 16.5527 6.3457Q16.377 5.74219 16.1191 5.0332Q15.8613 4.32422 15.5654 3.60059Q15.2695 2.87695 14.9707 2.24414Q14.7188 1.7168 14.4961 1.36523Q14.2734 1.01367 13.9307 0.791016Q13.5879 0.568359 12.9668 0.427734Q12.1406 0.240234 11.0039 0.123047Q9.86719 0.00585938 8.46094 0.00585938Q7.05469 0.00585938 5.91504 0.123047Q4.77539 0.240234 3.94922 0.427734Q3.32812 0.568359 2.98535 0.791016Q2.64258 1.01367 2.41992 1.36523Q2.19727 1.7168 1.94531 2.24414Q1.64648 2.87695 1.35059 3.60059Q1.05469 4.32422 0.796875 5.0332Q0.539062 5.74219 0.363281 6.3457Q0.193359 6.91406 0.0966797 7.41797Q0 7.92188 0 8.36133ZM0.896484 8.39648Q0.896484 8.12109 0.960938 7.76953Q1.02539 7.41797 1.16602 6.94336Q1.36523 6.26953 1.64062 5.49902Q1.91602 4.72852 2.22656 3.9668Q2.53711 3.20508 2.83008 2.55469Q2.9707 2.24414 3.10254 2.00977Q3.23438 1.77539 3.44531 1.61719Q3.65625 1.45898 4.03711 1.37109Q4.83398 1.18359 5.95312 1.06641Q7.07227 0.949219 8.46094 0.949219Q9.84375 0.949219 10.9629 1.06641Q12.082 1.18359 12.8789 1.37109Q13.2598 1.45898 13.4678 1.61719Q13.6758 1.77539 13.8076 2.00977Q13.9395 2.24414 14.0859 2.55469Q14.3906 3.20508 14.6953 3.9668Q15 4.72852 15.2725 5.49902Q15.5449 6.26953 15.75 6.94336Q15.8906 7.41797 15.9551 7.76953Q16.0195 8.12109 16.0195 8.39648Q16.0195 9.00586 15.6416 9.36035Q15.2637 9.71484 14.6953 9.71484Q14.0156 9.71484 13.4766 9.06445L12.375 7.73438Q12.1641 7.47656 11.9414 7.35059Q11.7188 7.22461 11.3145 7.22461L5.60156 7.22461Q5.19727 7.22461 4.97461 7.35059Q4.75195 7.47656 4.54102 7.73438L3.43945 9.06445Q3.18164 9.375 2.86816 9.54492Q2.55469 9.71484 2.2207 9.71484Q1.65234 9.71484 1.27441 9.36035Q0.896484 9.00586 0.896484 8.39648Z" fill="rgba(255,255,255,0.85)"/>
 </g>
</svg>
