<?xml version="1.0" encoding="UTF-8"?>
<!--Generator: Apple Native CoreSVG 175-->
<!DOCTYPE svg
PUBLIC "-//W3C//DTD SVG 1.1//EN"
       "http://www.w3.org/Graphics/SVG/1.1/DTD/svg11.dtd">
<svg version="1.1" xmlns="http://www.w3.org/2000/svg" xmlns:xlink="http://www.w3.org/1999/xlink" width="14.748" height="9.26367">
 <g>
  <rect height="9.26367" opacity="0" width="14.748" x="0" y="0"/>
  <path d="M1.83984 9.25781L12.9082 9.25781Q13.8223 9.25781 14.2852 8.80078Q14.748 8.34375 14.748 7.44141L14.748 1.81055Q14.748 0.908203 14.2852 0.454102Q13.8223 0 12.9082 0L1.83984 0Q0.919922 0 0.459961 0.454102Q0 0.908203 0 1.81055L0 7.44141Q0 8.34961 0.459961 8.80371Q0.919922 9.25781 1.83984 9.25781ZM1.85156 8.31445Q1.41211 8.31445 1.17773 8.08008Q0.943359 7.8457 0.943359 7.38867L0.943359 1.86328Q0.943359 1.40625 1.17773 1.1748Q1.41211 0.943359 1.85156 0.943359L12.8906 0.943359Q13.3242 0.943359 13.5645 1.1748Q13.8047 1.40625 13.8047 1.86328L13.8047 7.38867Q13.8047 7.8457 13.5645 8.08008Q13.3242 8.31445 12.8906 8.31445ZM2.37891 3.26367L2.91797 3.26367Q3.18164 3.26367 3.18164 3.00586L3.18164 2.4668Q3.18164 2.20312 2.91797 2.20312L2.37891 2.20312Q2.12109 2.20312 2.12109 2.4668L2.12109 3.00586Q2.12109 3.26367 2.37891 3.26367ZM4.26562 3.26367L4.80469 3.26367Q5.0625 3.26367 5.0625 3.00586L5.0625 2.4668Q5.0625 2.20312 4.80469 2.20312L4.26562 2.20312Q4.00195 2.20312 4.00195 2.4668L4.00195 3.00586Q4.00195 3.26367 4.26562 3.26367ZM6.15234 3.26367L6.68555 3.26367Q6.94922 3.26367 6.94922 3.00586L6.94922 2.4668Q6.94922 2.20312 6.68555 2.20312L6.15234 2.20312Q5.88867 2.20312 5.88867 2.4668L5.88867 3.00586Q5.88867 3.26367 6.15234 3.26367ZM8.0332 3.26367L8.57227 3.26367Q8.83594 3.26367 8.83594 3.00586L8.83594 2.4668Q8.83594 2.20312 8.57227 2.20312L8.0332 2.20312Q7.77539 2.20312 7.77539 2.4668L7.77539 3.00586Q7.77539 3.26367 8.0332 3.26367ZM9.91992 3.26367L10.459 3.26367Q10.7168 3.26367 10.7168 3.00586L10.7168 2.4668Q10.7168 2.20312 10.459 2.20312L9.91992 2.20312Q9.65625 2.20312 9.65625 2.4668L9.65625 3.00586Q9.65625 3.26367 9.91992 3.26367ZM11.8066 3.26367L12.3398 3.26367Q12.6035 3.26367 12.6035 3.00586L12.6035 2.4668Q12.6035 2.20312 12.3398 2.20312L11.8066 2.20312Q11.543 2.20312 11.543 2.4668L11.543 3.00586Q11.543 3.26367 11.8066 3.26367ZM2.37891 5.15039L2.91797 5.15039Q3.18164 5.15039 3.18164 4.88672L3.18164 4.35352Q3.18164 4.08984 2.91797 4.08984L2.37891 4.08984Q2.12109 4.08984 2.12109 4.35352L2.12109 4.88672Q2.12109 5.15039 2.37891 5.15039ZM4.26562 5.15039L4.80469 5.15039Q5.0625 5.15039 5.0625 4.88672L5.0625 4.35352Q5.0625 4.08984 4.80469 4.08984L4.26562 4.08984Q4.00195 4.08984 4.00195 4.35352L4.00195 4.88672Q4.00195 5.15039 4.26562 5.15039ZM6.15234 5.15039L6.68555 5.15039Q6.94922 5.15039 6.94922 4.88672L6.94922 4.35352Q6.94922 4.08984 6.68555 4.08984L6.15234 4.08984Q5.88867 4.08984 5.88867 4.35352L5.88867 4.88672Q5.88867 5.15039 6.15234 5.15039ZM8.0332 5.15039L8.57227 5.15039Q8.83594 5.15039 8.83594 4.88672L8.83594 4.35352Q8.83594 4.08984 8.57227 4.08984L8.0332 4.08984Q7.77539 4.08984 7.77539 4.35352L7.77539 4.88672Q7.77539 5.15039 8.0332 5.15039ZM9.91992 5.15039L10.459 5.15039Q10.7168 5.15039 10.7168 4.88672L10.7168 4.35352Q10.7168 4.08984 10.459 4.08984L9.91992 4.08984Q9.65625 4.08984 9.65625 4.35352L9.65625 4.88672Q9.65625 5.15039 9.91992 5.15039ZM11.8066 5.15039L12.3398 5.15039Q12.6035 5.15039 12.6035 4.88672L12.6035 4.35352Q12.6035 4.08984 12.3398 4.08984L11.8066 4.08984Q11.543 4.08984 11.543 4.35352L11.543 4.88672Q11.543 5.15039 11.8066 5.15039ZM2.37891 7.03711L2.91797 7.03711Q3.18164 7.03711 3.18164 6.77344L3.18164 6.23438Q3.18164 5.97656 2.91797 5.97656L2.37891 5.97656Q2.12109 5.97656 2.12109 6.23438L2.12109 6.77344Q2.12109 7.03711 2.37891 7.03711ZM4.32422 7.03711L10.4004 7.03711Q10.7168 7.03711 10.7168 6.71484L10.7168 6.29297Q10.7168 5.97656 10.4004 5.97656L4.32422 5.97656Q4.00195 5.97656 4.00195 6.29297L4.00195 6.71484Q4.00195 7.03711 4.32422 7.03711ZM11.8066 7.03711L12.3398 7.03711Q12.6035 7.03711 12.6035 6.77344L12.6035 6.23438Q12.6035 5.97656 12.3398 5.97656L11.8066 5.97656Q11.543 5.97656 11.543 6.23438L11.543 6.77344Q11.543 7.03711 11.8066 7.03711Z" fill="rgba(255,255,255,0.85)"/>
 </g>
</svg>
