<?xml version="1.0" encoding="UTF-8"?>
<!--Generator: Apple Native CoreSVG 175-->
<!DOCTYPE svg
PUBLIC "-//W3C//DTD SVG 1.1//EN"
       "http://www.w3.org/Graphics/SVG/1.1/DTD/svg11.dtd">
<svg version="1.1" xmlns="http://www.w3.org/2000/svg" xmlns:xlink="http://www.w3.org/1999/xlink" width="11.9531" height="11.959">
 <g>
  <rect height="11.959" opacity="0" width="11.9531" x="0" y="0"/>
  <path d="M5.97656 11.9531Q7.20117 11.9531 8.28223 11.4844Q9.36328 11.0156 10.1895 10.1895Q11.0156 9.36328 11.4844 8.28223Q11.9531 7.20117 11.9531 5.97656Q11.9531 4.75195 11.4844 3.6709Q11.0156 2.58984 10.1895 1.76367Q9.36328 0.9375 8.2793 0.46875Q7.19531 0 5.9707 0Q4.74609 0 3.66504 0.46875Q2.58398 0.9375 1.76074 1.76367Q0.9375 2.58984 0.46875 3.6709Q0 4.75195 0 5.97656Q0 7.20117 0.46875 8.28223Q0.9375 9.36328 1.76367 10.1895Q2.58984 11.0156 3.6709 11.4844Q4.75195 11.9531 5.97656 11.9531ZM5.97656 10.957Q4.93945 10.957 4.03711 10.5703Q3.13477 10.1836 2.45215 9.50098Q1.76953 8.81836 1.38574 7.91602Q1.00195 7.01367 1.00195 5.97656Q1.00195 4.93945 1.38574 4.03711Q1.76953 3.13477 2.44922 2.44922Q3.12891 1.76367 4.03125 1.37988Q4.93359 0.996094 5.9707 0.996094Q7.00781 0.996094 7.91016 1.37988Q8.8125 1.76367 9.49805 2.44922Q10.1836 3.13477 10.5703 4.03711Q10.957 4.93945 10.957 5.97656Q10.957 7.01367 10.5732 7.91602Q10.1895 8.81836 9.50684 9.50098Q8.82422 10.1836 7.91895 10.5703Q7.01367 10.957 5.97656 10.957ZM3.85547 8.28516Q3.85547 8.92969 4.45312 8.92969L7.48828 8.92969Q8.0918 8.92969 8.0918 8.28516L8.0918 5.95312Q8.0918 5.34961 7.57031 5.31445L7.57031 4.62305Q7.57031 3.81445 7.12793 3.31641Q6.68555 2.81836 5.9707 2.81836Q5.25586 2.81836 4.81348 3.31641Q4.37109 3.81445 4.37109 4.62305L4.37109 5.31445Q3.85547 5.34961 3.85547 5.95312ZM4.98047 5.30859L4.98047 4.55859Q4.98047 4.04297 5.25293 3.72656Q5.52539 3.41016 5.9707 3.41016Q6.41602 3.41016 6.68848 3.72656Q6.96094 4.04297 6.96094 4.55859L6.96094 5.30859Z" fill="rgba(255,255,255,0.85)"/>
 </g>
</svg>
