<?xml version="1.0" encoding="UTF-8"?>
<!--Generator: Apple Native CoreSVG 175-->
<!DOCTYPE svg
PUBLIC "-//W3C//DTD SVG 1.1//EN"
       "http://www.w3.org/Graphics/SVG/1.1/DTD/svg11.dtd">
<svg version="1.1" xmlns="http://www.w3.org/2000/svg" xmlns:xlink="http://www.w3.org/1999/xlink" width="12.5566" height="11.5605">
 <g>
  <rect height="11.5605" opacity="0" width="12.5566" x="0" y="0"/>
  <path d="M1.83984 9.73242L10.7168 9.73242Q11.6367 9.73242 12.0967 9.27832Q12.5566 8.82422 12.5566 7.91602L12.5566 3.65625Q12.5566 2.74805 12.0967 2.29395Q11.6367 1.83984 10.7168 1.83984L1.83984 1.83984Q0.919922 1.83984 0.459961 2.29395Q0 2.74805 0 3.65625L0 7.91602Q0 8.82422 0.459961 9.27832Q0.919922 9.73242 1.83984 9.73242ZM1.85156 8.78906Q1.41211 8.78906 1.17773 8.55762Q0.943359 8.32617 0.943359 7.86914L0.943359 3.70312Q0.943359 3.24609 1.17773 3.01465Q1.41211 2.7832 1.85156 2.7832L10.7051 2.7832Q11.1387 2.7832 11.376 3.01465Q11.6133 3.24609 11.6133 3.70312L11.6133 7.86914Q11.6133 8.32617 11.376 8.55762Q11.1387 8.78906 10.7051 8.78906ZM2.02148 1.03711L2.96484 1.03711L2.96484 0.480469Q2.96484 0.269531 2.83301 0.137695Q2.70117 0.00585938 2.49023 0.00585938Q2.2793 0.00585938 2.15039 0.137695Q2.02148 0.269531 2.02148 0.480469ZM3.91406 1.03711L4.85742 1.03711L4.85742 0.480469Q4.85742 0.269531 4.72559 0.137695Q4.59375 0.00585938 4.38281 0.00585938Q4.17188 0.00585938 4.04297 0.137695Q3.91406 0.269531 3.91406 0.480469ZM5.80664 1.03711L6.75 1.03711L6.75 0.480469Q6.75 0.269531 6.61816 0.137695Q6.48633 0.00585938 6.27539 0.00585938Q6.06445 0.00585938 5.93555 0.137695Q5.80664 0.269531 5.80664 0.480469ZM7.69922 1.03711L8.64258 1.03711L8.64258 0.480469Q8.64258 0.269531 8.51367 0.137695Q8.38477 0.00585938 8.17383 0.00585938Q7.96289 0.00585938 7.83105 0.137695Q7.69922 0.269531 7.69922 0.480469ZM9.5918 1.03711L10.5352 1.03711L10.5352 0.480469Q10.5352 0.269531 10.4062 0.137695Q10.2773 0.00585938 10.0664 0.00585938Q9.85547 0.00585938 9.72363 0.137695Q9.5918 0.269531 9.5918 0.480469ZM2.02148 10.5352L2.02148 11.0918Q2.02148 11.3027 2.15039 11.4316Q2.2793 11.5605 2.49023 11.5605Q2.70117 11.5605 2.83301 11.4316Q2.96484 11.3027 2.96484 11.0918L2.96484 10.5352ZM3.91406 10.5352L3.91406 11.0918Q3.91406 11.3027 4.04297 11.4316Q4.17188 11.5605 4.38281 11.5605Q4.59375 11.5605 4.72559 11.4316Q4.85742 11.3027 4.85742 11.0918L4.85742 10.5352ZM5.80664 10.5352L5.80664 11.0918Q5.80664 11.3027 5.93555 11.4316Q6.06445 11.5605 6.27539 11.5605Q6.48633 11.5605 6.61816 11.4316Q6.75 11.3027 6.75 11.0918L6.75 10.5352ZM7.69922 10.5352L7.69922 11.0918Q7.69922 11.3027 7.83105 11.4316Q7.96289 11.5605 8.17383 11.5605Q8.38477 11.5605 8.51367 11.4316Q8.64258 11.3027 8.64258 11.0918L8.64258 10.5352ZM9.5918 10.5352L9.5918 11.0918Q9.5918 11.3027 9.72363 11.4316Q9.85547 11.5605 10.0664 11.5605Q10.2773 11.5605 10.4062 11.4316Q10.5352 11.3027 10.5352 11.0918L10.5352 10.5352Z" fill="rgba(255,255,255,0.85)"/>
 </g>
</svg>
