<?xml version="1.0" encoding="UTF-8"?>
<!--Generator: Apple Native CoreSVG 175-->
<!DOCTYPE svg
PUBLIC "-//W3C//DTD SVG 1.1//EN"
       "http://www.w3.org/Graphics/SVG/1.1/DTD/svg11.dtd">
<svg version="1.1" xmlns="http://www.w3.org/2000/svg" xmlns:xlink="http://www.w3.org/1999/xlink" width="8.20898" height="12.8613">
 <g>
  <rect height="12.8613" opacity="0" width="8.20898" x="0" y="0"/>
  <path d="M4.10156 12.8613Q6.12305 12.8613 7.16602 11.6807Q8.20898 10.5 8.20898 8.21484Q8.20898 6.81445 8.15625 5.60742Q8.10352 4.40039 8.02734 3.55078Q7.85742 1.68164 6.93457 0.849609Q6.01172 0.0175781 4.10156 0.0175781Q2.19141 0.0175781 1.26855 0.849609Q0.345703 1.68164 0.175781 3.55078Q0.0996094 4.40039 0.0498047 5.60742Q0 6.81445 0 8.21484Q0 10.5 1.04004 11.6807Q2.08008 12.8613 4.10156 12.8613ZM4.10156 11.918Q2.54297 11.918 1.74316 10.9805Q0.943359 10.043 0.943359 8.21484Q0.943359 6.89648 0.990234 5.70703Q1.03711 4.51758 1.11914 3.63867Q1.20703 2.64258 1.51465 2.05664Q1.82227 1.4707 2.44629 1.21582Q3.07031 0.960938 4.10156 0.960938Q5.13281 0.960938 5.75684 1.21582Q6.38086 1.4707 6.69141 2.05664Q7.00195 2.64258 7.08984 3.63867Q7.17188 4.51758 7.21875 5.70703Q7.26562 6.89648 7.26562 8.21484Q7.26562 10.043 6.46582 10.9805Q5.66602 11.918 4.10156 11.918ZM0.708984 4.40039L7.50586 4.40039L7.50586 3.63281L0.708984 3.63281ZM3.72656 4.01367L4.49414 4.01953L4.49414 0.621094L3.72656 0.615234Z" fill="rgba(255,255,255,0.85)"/>
 </g>
</svg>
