<?xml version="1.0" encoding="UTF-8"?>
<!--Generator: Apple Native CoreSVG 175-->
<!DOCTYPE svg
PUBLIC "-//W3C//DTD SVG 1.1//EN"
       "http://www.w3.org/Graphics/SVG/1.1/DTD/svg11.dtd">
<svg version="1.1" xmlns="http://www.w3.org/2000/svg" xmlns:xlink="http://www.w3.org/1999/xlink" width="7.0957" height="10.3418">
 <g>
  <rect height="10.3418" opacity="0" width="7.0957" x="0" y="0"/>
  <path d="M1.19531 7.55273L2.87109 7.55273Q2.95312 7.55273 3.01172 7.60547L5.6543 9.97266Q5.86523 10.1602 6.04395 10.251Q6.22266 10.3418 6.43359 10.3418Q6.7207 10.3418 6.9082 10.1543Q7.0957 9.9668 7.0957 9.68555L7.0957 0.697266Q7.0957 0.410156 6.90527 0.208008Q6.71484 0.00585938 6.42188 0.00585938Q6.21094 0.00585938 6.0498 0.105469Q5.88867 0.205078 5.6543 0.410156L3.01172 2.75391Q2.95898 2.80664 2.87109 2.80664L1.19531 2.80664Q0.597656 2.80664 0.298828 3.11426Q0 3.42188 0 4.06055L0 6.30469Q0 6.9375 0.298828 7.24512Q0.597656 7.55273 1.19531 7.55273ZM1.23633 6.69727Q1.07227 6.69727 0.993164 6.62109Q0.914062 6.54492 0.914062 6.38086L0.914062 3.98438Q0.914062 3.82031 0.993164 3.74121Q1.07227 3.66211 1.23633 3.66211L3.11133 3.66211Q3.22266 3.66211 3.31641 3.63281Q3.41016 3.60352 3.50977 3.50977L6.00586 1.24219Q6.0293 1.21875 6.05273 1.20703Q6.07617 1.19531 6.10547 1.19531Q6.18164 1.19531 6.18164 1.27734L6.18164 9.06445Q6.18164 9.15234 6.10547 9.15234Q6.05859 9.15234 6.01172 9.10547L3.50977 6.84961Q3.41016 6.76172 3.31641 6.72949Q3.22266 6.69727 3.11133 6.69727Z" fill="rgba(255,255,255,0.85)"/>
 </g>
</svg>
