<?xml version="1.0" encoding="UTF-8"?>
<!--Generator: Apple Native CoreSVG 175-->
<!DOCTYPE svg
PUBLIC "-//W3C//DTD SVG 1.1//EN"
       "http://www.w3.org/Graphics/SVG/1.1/DTD/svg11.dtd">
<svg version="1.1" xmlns="http://www.w3.org/2000/svg" xmlns:xlink="http://www.w3.org/1999/xlink" width="16.6465" height="13.2012">
 <g>
  <rect height="13.2012" opacity="0" width="16.6465" x="0" y="0"/>
  <path d="M1.50586 10.6699L9.49805 10.6699L9.49805 9.72656L1.52344 9.72656Q1.21875 9.72656 1.08105 9.59473Q0.943359 9.46289 0.943359 9.15234L0.943359 2.4668Q0.943359 2.15625 1.08105 2.02441Q1.21875 1.89258 1.52344 1.89258L13.1133 1.89258Q13.4121 1.89258 13.5498 2.02441Q13.6875 2.15625 13.6875 2.4668L13.6875 4.17773L14.6309 4.17773L14.6309 2.44922Q14.6309 1.68164 14.2559 1.31543Q13.8809 0.949219 13.1309 0.949219L1.50586 0.949219Q0.755859 0.949219 0.37793 1.31543Q0 1.68164 0 2.44922L0 9.16406Q0 9.9375 0.37793 10.3037Q0.755859 10.6699 1.50586 10.6699ZM4.04883 12.6562L9.58594 12.6562Q9.55078 12.5215 9.53027 12.3984Q9.50977 12.2754 9.50391 12.1143Q9.49805 11.9531 9.49805 11.707L4.04883 11.707Q3.84961 11.707 3.71191 11.8477Q3.57422 11.9883 3.57422 12.1816Q3.57422 12.3809 3.71191 12.5186Q3.84961 12.6562 4.04883 12.6562ZM11.5957 13.2012L15.4043 13.2012Q16.0195 13.2012 16.333 12.8877Q16.6465 12.5742 16.6465 11.9473L16.6465 6.29297Q16.6465 5.66602 16.333 5.34961Q16.0195 5.0332 15.4043 5.0332L11.5957 5.0332Q10.9688 5.0332 10.6611 5.34961Q10.3535 5.66602 10.3535 6.29297L10.3535 11.9473Q10.3535 12.5742 10.6611 12.8877Q10.9688 13.2012 11.5957 13.2012ZM13.4941 12.1875Q12.9961 12.1875 12.5918 11.9443Q12.1875 11.7012 11.9473 11.2939Q11.707 10.8867 11.707 10.3887Q11.707 9.88477 11.9473 9.47754Q12.1875 9.07031 12.5918 8.83008Q12.9961 8.58984 13.4941 8.58398Q13.9922 8.58398 14.3994 8.82422Q14.8066 9.06445 15.0498 9.47461Q15.293 9.88477 15.293 10.3887Q15.293 10.8867 15.0498 11.2939Q14.8066 11.7012 14.3994 11.9443Q13.9922 12.1875 13.4941 12.1875ZM13.5 8.02148Q13.0781 8.02148 12.7822 7.72559Q12.4863 7.42969 12.4922 7.00195Q12.498 6.58008 12.7881 6.29004Q13.0781 6 13.5 6Q13.9219 6 14.2148 6.29004Q14.5078 6.58008 14.5078 7.00195Q14.5078 7.42969 14.2148 7.72559Q13.9219 8.02148 13.5 8.02148ZM13.4941 11.1387Q13.8105 11.1387 14.0332 10.9189Q14.2559 10.6992 14.2559 10.3887Q14.2559 10.0605 14.0361 9.84082Q13.8164 9.62109 13.4941 9.62109Q13.1836 9.62109 12.9639 9.84082Q12.7441 10.0605 12.7441 10.3887Q12.7441 10.6992 12.9639 10.9189Q13.1836 11.1387 13.4941 11.1387ZM13.4941 7.50586Q13.7051 7.50586 13.8486 7.35938Q13.9922 7.21289 13.9922 7.00195Q13.9922 6.79102 13.8486 6.65039Q13.7051 6.50977 13.4941 6.50977Q13.2949 6.50977 13.1484 6.65625Q13.002 6.80273 13.002 7.00195Q13.002 7.21289 13.1455 7.35938Q13.2891 7.50586 13.4941 7.50586Z" fill="rgba(255,255,255,0.85)"/>
 </g>
</svg>
