<?xml version="1.0" encoding="UTF-8" standalone="no"?>
<svg
   width="220"
   height="260"
   version="1.0"
   id="svg122"
   sodipodi:docname="xa2e.svg"
   inkscape:version="1.2.2 (b0a8486541, 2022-12-01)"
   xmlns:inkscape="http://www.inkscape.org/namespaces/inkscape"
   xmlns:sodipodi="http://sodipodi.sourceforge.net/DTD/sodipodi-0.dtd"
   xmlns="http://www.w3.org/2000/svg"
   xmlns:svg="http://www.w3.org/2000/svg">
  <sodipodi:namedview
     id="namedview124"
     pagecolor="#ffffff"
     bordercolor="#666666"
     borderopacity="1.0"
     inkscape:showpageshadow="2"
     inkscape:pageopacity="0.0"
     inkscape:pagecheckerboard="0"
     inkscape:deskcolor="#d1d1d1"
     showgrid="false"
     inkscape:zoom="0.84285714"
     inkscape:cx="208.81356"
     inkscape:cy="140"
     inkscape:window-width="1850"
     inkscape:window-height="1131"
     inkscape:window-x="0"
     inkscape:window-y="0"
     inkscape:window-maximized="1"
     inkscape:current-layer="svg122" />
  <defs
     id="defs96" />
  <g
     fill-rule="evenodd"
     transform="matrix(0.48914,0,0,0.48914,23.746181,-230.11468)"
     id="g120">
    <path
       fill="#008000"
       stroke="#008000"
       d="m 185.88236,946.36298 c 7.47,-0.45536 17.25692,-1.85203 39.55817,10.75708 80.69605,33.76877 118.71228,-54.08983 146.58723,-114.29252 -48.97204,-24.24059 -111.47395,-107.66196 -15.67218,-187.59672 -22.45339,-27.69513 -53.37882,-42.32012 -88.23611,-42.86864 -16.70407,-0.18585 -33.79221,2.4776 -47.4901,9.69428 -15.33715,8.08032 -26.96241,10.14898 -28.0188,10.29956 -1.05639,0.15058 -12.75718,0.0947 -13.81357,-0.0559 -1.05639,-0.15058 -16.69326,-1.90362 -29.09023,-8.51385 -13.66185,-7.28467 -29.7146,-11.66584 -46.41867,-11.47999 -128.486116,1.42957 -174.327886,191.30014 -35.308406,337.43428 20.16385,21.19578 60.419096,17.25668 77.987346,7.3236 22.30125,-12.60911 32.03657,-10.22093 39.91532,-10.70122 z"
       id="path106" />
    <path
       fill="#ffff00"
       stroke="#ffff00"
       d="m 5.625,668.78125 c -40.763308,67.63098 -29.957221,183.94406 62.34375,280.96875 20.163843,21.19578 60.43175,17.24558 78,7.3125 22.30125,-12.60912 32.0275,-10.20721 39.90625,-10.6875 7.47001,-0.45536 17.26125,-1.85911 39.5625,10.75 80.69605,33.76877 118.7188,-54.10981 146.59375,-114.3125 -46.2103,-22.87353 -104.44183,-98.42134 -30.375,-174.03125 z"
       id="path108" />
    <path
       fill="#ff6600"
       stroke="#ff6600"
       d="m -14.875,728.0625 c -9.640465,65.71508 13.7903417,149.10012 82.84375,221.6875 20.163843,21.19578 60.43175,17.24558 78,7.3125 22.30125,-12.60912 32.0275,-10.20721 39.90625,-10.6875 7.47001,-0.45536 17.26125,-1.85911 39.5625,10.75 80.69605,33.76877 118.7188,-54.10981 146.59375,-114.3125 -33.93022,-16.79505 -74.32474,-61.97955 -64.09375,-114.75 z"
       id="path110" />
    <path
       fill="#ff0000"
       stroke="#ff0000"
       d="m -14.9375,786.625 c 7.0708126,52.87816 33.132389,110.80384 82.90625,163.125 20.163843,21.19578 60.43175,17.24558 78,7.3125 22.30125,-12.60912 32.0275,-10.20721 39.90625,-10.6875 7.47001,-0.45536 17.26125,-1.85911 39.5625,10.75 80.69605,33.76877 118.7188,-54.10981 146.59375,-114.3125 -20.3004,-10.04845 -42.91466,-30.26418 -55.625,-56.1875 z"
       id="path112" />
    <path
       fill="#800080"
       stroke="#800080"
       d="m 1.4375,848.0625 c 13.749643,34.35335 35.538913,69.10906 66.53125,101.6875 20.163843,21.19578 60.43175,17.24558 78,7.3125 22.30125,-12.60912 32.0275,-10.20721 39.90625,-10.6875 7.47001,-0.45536 17.26125,-1.85911 39.5625,10.75 78.41444,32.81399 116.51816,-49.15828 144.1875,-109.0625 z"
       id="path114" />
    <path
       fill="#0000ff"
       stroke="#0000ff"
       d="m 33.9375,908.09375 c 9.803311,14.13886 21.121475,28.08579 34.03125,41.65625 20.163843,21.19578 60.43175,17.24558 78,7.3125 22.30125,-12.60912 32.0275,-10.20721 39.90625,-10.6875 7.47001,-0.45536 17.26125,-1.85911 39.5625,10.75 53.19968,22.2624 87.85763,-8.34351 113.28125,-49.03125 z"
       id="path116" />
    <path
       fill="#008000"
       stroke="#008000"
       d="m 266.93281,504.35442 c -2.56775,74.06312 -39.26996,103.58961 -92.17642,111.8744 1.11889,-62.18791 31.79526,-99.52067 92.17642,-111.8744 z"
       id="path118" />
  </g>
</svg>
